<?xml version="1.0" encoding="UTF-8"?>
<!DOCTYPE svg PUBLIC "-//W3C//DTD SVG 1.1//EN" "http://www.w3.org/Graphics/SVG/1.1/DTD/svg11.dtd">
<svg xmlns="http://www.w3.org/2000/svg" version="1.1" width="200px" height="200px" style="shape-rendering:geometricPrecision; text-rendering:geometricPrecision; image-rendering:optimizeQuality; fill-rule:evenodd; clip-rule:evenodd" xmlns:xlink="http://www.w3.org/1999/xlink">
<g><path style="opacity:0.969" fill="#d9dcdc" d="M 123.5,36.5 C 124.451,37.9187 124.784,39.5853 124.5,41.5C 123.833,42.5 123.167,43.5 122.5,44.5C 118.167,46.1667 116.833,44.8333 118.5,40.5C 120.167,39.1667 121.833,37.8333 123.5,36.5 Z"/></g>
<g><path style="opacity:0.014" fill="#040e0f" d="M 169.5,61.5 C 169.307,57.551 168.807,57.551 168,61.5C 167.505,59.5273 167.338,57.5273 167.5,55.5C 167.672,54.5084 167.338,53.8417 166.5,53.5C 161.167,52.3053 157.167,53.9719 154.5,58.5C 153.683,60.9686 153.183,63.6353 153,66.5C 152.802,64.6183 152.302,62.9516 151.5,61.5C 150.883,61.3893 150.383,61.056 150,60.5C 146.391,64.4516 142.557,67.9516 138.5,71C 139.527,71.5133 140.527,72.0133 141.5,72.5C 141.167,73.1667 140.833,73.8333 140.5,74.5C 135.773,75.5406 132.106,78.2073 129.5,82.5C 128.167,83.5 126.833,84.5 125.5,85.5C 124.5,85.5 123.5,85.5 122.5,85.5C 122.343,84.1266 122.51,82.7932 123,81.5C 126.704,77.9643 130.204,74.2976 133.5,70.5C 146.464,58.7051 159.297,46.7051 172,34.5C 172.684,33.2161 172.517,32.0495 171.5,31C 169.934,30.235 168.601,30.4017 167.5,31.5C 166.391,31.4431 165.391,31.1098 164.5,30.5C 164.611,29.8826 164.944,29.3826 165.5,29C 161.787,27.3088 160.621,24.4755 162,20.5C 164.459,17.8997 166.959,17.8997 169.5,20.5C 170.833,22.5 170.833,24.5 169.5,26.5C 177.126,30.6511 177.459,35.4844 170.5,41C 176.149,45.2557 175.816,48.9224 169.5,52C 170.126,52.7504 170.626,53.5838 171,54.5C 172.483,50.3345 175.316,48.8345 179.5,50C 182.732,54.5849 181.732,57.7516 176.5,59.5C 174.272,58.7814 172.439,57.448 171,55.5C 170.809,57.7078 170.309,59.7078 169.5,61.5 Z M 163.5,46.5 C 169.106,50.2851 168.439,51.2851 161.5,49.5C 162.193,48.4822 162.859,47.4822 163.5,46.5 Z"/></g>
<g><path style="opacity:0.561" fill="#b2b4b7" d="M 164.5,21.5 C 165.5,21.5 166.5,21.5 167.5,21.5C 167.5,22.5 167.5,23.5 167.5,24.5C 166.5,24.5 165.5,24.5 164.5,24.5C 164.5,23.5 164.5,22.5 164.5,21.5 Z"/></g>
<g><path style="opacity:0.004" fill="#081213" d="M 137.5,43.5 C 137.657,44.8734 137.49,46.2068 137,47.5C 136.878,45.563 136.045,44.2297 134.5,43.5C 131.5,43.1667 130.167,44.5 130.5,47.5C 129.732,46.7375 129.232,45.7375 129,44.5C 128.79,46.0581 128.29,47.3915 127.5,48.5C 127.5,47.8333 127.167,47.5 126.5,47.5C 126.5,46.8333 126.5,46.1667 126.5,45.5C 125.708,43.2552 124.375,42.9219 122.5,44.5C 123.167,43.5 123.833,42.5 124.5,41.5C 126.985,39.5162 129.318,37.3495 131.5,35C 128.425,31.5891 125.759,32.0891 123.5,36.5C 121.833,37.8333 120.167,39.1667 118.5,40.5C 117.313,39.4664 116.48,38.133 116,36.5C 115.583,37.756 114.75,38.4226 113.5,38.5C 112.126,33.8028 110.126,33.4695 107.5,37.5C 108.588,38.9344 109.922,39.9344 111.5,40.5C 110.329,41.3446 108.995,42.0113 107.5,42.5C 105.841,41.1658 104.508,39.4992 103.5,37.5C 108.228,28.2144 113.062,28.2144 118,37.5C 118.374,36.5838 118.874,35.7504 119.5,35C 114.119,30.9705 114.453,27.4705 120.5,24.5C 123.429,24.9279 125.263,26.5946 126,29.5C 132.529,28.0281 135.196,30.6947 134,37.5C 130.573,39.8332 131.073,40.9998 135.5,41C 136.381,41.7083 137.047,42.5416 137.5,43.5 Z"/></g>
<g><path style="opacity:0.959" fill="#d2d3d4" d="M 113.5,38.5 C 112.5,38.8333 111.833,39.5 111.5,40.5C 109.922,39.9344 108.588,38.9344 107.5,37.5C 110.126,33.4695 112.126,33.8028 113.5,38.5 Z"/></g>
<g><path style="opacity:0.976" fill="#85b8a0" d="M 124.5,41.5 C 124.784,39.5853 124.451,37.9187 123.5,36.5C 125.759,32.0891 128.425,31.5891 131.5,35C 129.318,37.3495 126.985,39.5162 124.5,41.5 Z"/></g>
<g><path style="opacity:0.694" fill="#d0d2d3" d="M 119.5,28.5 C 120.5,28.5 121.5,28.5 122.5,28.5C 122.5,29.5 122.5,30.5 122.5,31.5C 121.5,31.5 120.5,31.5 119.5,31.5C 119.5,30.5 119.5,29.5 119.5,28.5 Z"/></g>
<g><path style="opacity:0.806" fill="#47b48b" d="M 134.5,43.5 C 135.301,45.0418 135.634,46.7085 135.5,48.5C 133.833,48.5 132.167,48.5 130.5,48.5C 130.5,48.1667 130.5,47.8333 130.5,47.5C 130.167,44.5 131.5,43.1667 134.5,43.5 Z"/></g>
<g><path style="opacity:0.995" fill="#45cb98" d="M 133.5,70.5 C 132.5,70.5 131.5,70.5 130.5,70.5C 130.351,69.448 130.517,68.448 131,67.5C 136.37,62.298 141.536,56.9647 146.5,51.5C 153.526,44.8056 160.526,38.1389 167.5,31.5C 168.601,30.4017 169.934,30.235 171.5,31C 172.517,32.0495 172.684,33.2161 172,34.5C 159.297,46.7051 146.464,58.7051 133.5,70.5 Z"/></g>
<g><path style="opacity:0.01" fill="#030e0f" d="M 118.5,40.5 C 116.833,44.8333 118.167,46.1667 122.5,44.5C 124.375,42.9219 125.708,43.2552 126.5,45.5C 122.711,46.5961 122.711,47.2627 126.5,47.5C 127.167,47.5 127.5,47.8333 127.5,48.5C 128.29,47.3915 128.79,46.0581 129,44.5C 129.232,45.7375 129.732,46.7375 130.5,47.5C 130.5,47.8333 130.5,48.1667 130.5,48.5C 129.662,48.8417 129.328,49.5084 129.5,50.5C 128.167,50.8333 128.167,51.1667 129.5,51.5C 129.461,52.5832 129.127,53.5832 128.5,54.5C 128.957,55.2975 129.624,55.6309 130.5,55.5C 129.89,56.391 129.557,57.391 129.5,58.5C 128.041,58.4326 126.708,58.7659 125.5,59.5C 126.056,56.8891 126.056,54.2225 125.5,51.5C 124.399,50.4017 123.066,50.235 121.5,51C 118.588,52.8578 117.088,55.3578 117,58.5C 118.011,59.3366 119.178,59.67 120.5,59.5C 120.938,59.4346 121.272,59.6012 121.5,60C 120.167,60.3333 118.833,60.6667 117.5,61C 118.738,61.69 118.738,62.19 117.5,62.5C 114.73,60.6342 113.23,57.9676 113,54.5C 110.618,55.8663 108.452,55.533 106.5,53.5C 104.702,56.4733 102.202,58.4733 99,59.5C 95.1266,58.1468 91.6266,56.1468 88.5,53.5C 89.2055,44.6145 93.8721,40.7811 102.5,42C 104.303,42.6368 105.636,43.8035 106.5,45.5C 108.519,44.8671 108.853,43.8671 107.5,42.5C 108.995,42.0113 110.329,41.3446 111.5,40.5C 111.833,39.5 112.5,38.8333 113.5,38.5C 114.75,38.4226 115.583,37.756 116,36.5C 116.48,38.133 117.313,39.4664 118.5,40.5 Z M 115.5,46.5 C 120.556,48.1869 120.556,50.1869 115.5,52.5C 116.833,50.5 116.833,48.5 115.5,46.5 Z M 126.5,45.5 C 126.5,46.1667 126.5,46.8333 126.5,47.5C 122.711,47.2627 122.711,46.5961 126.5,45.5 Z M 115.5,46.5 C 112.955,45.5624 112.455,44.2291 114,42.5C 114.791,43.745 115.291,45.0783 115.5,46.5 Z"/></g>
<g><path style="opacity:0.99" fill="#ddeae8" d="M 96.5,45.5 C 97.5,46.8333 98.5,48.1667 99.5,49.5C 97.1667,50.1667 94.8333,50.8333 92.5,51.5C 92.6845,48.6627 94.0178,46.6627 96.5,45.5 Z"/></g>
<g><path style="opacity:0.01" fill="#020f0f" d="M 164.5,30.5 C 165.391,31.1098 166.391,31.4431 167.5,31.5C 160.526,38.1389 153.526,44.8056 146.5,51.5C 144.84,49.7516 142.84,49.2516 140.5,50C 137.236,53.7729 133.57,56.9396 129.5,59.5C 129.5,59.1667 129.5,58.8333 129.5,58.5C 129.557,57.391 129.89,56.391 130.5,55.5C 130.953,54.5416 131.619,53.7083 132.5,53C 131.473,52.4867 130.473,51.9867 129.5,51.5C 129.5,51.1667 129.5,50.8333 129.5,50.5C 129.328,49.5084 129.662,48.8417 130.5,48.5C 132.167,48.5 133.833,48.5 135.5,48.5C 135.634,46.7085 135.301,45.0418 134.5,43.5C 136.045,44.2297 136.878,45.563 137,47.5C 137.49,46.2068 137.657,44.8734 137.5,43.5C 138.315,44.4293 139.148,45.4293 140,46.5C 142.011,45.2828 144.011,45.6161 146,47.5C 148.018,45.6499 149.851,43.6499 151.5,41.5C 147.436,41.5552 143.102,41.3885 138.5,41C 136.204,37.6076 135.87,33.941 137.5,30C 131.922,25.5884 132.255,21.7551 138.5,18.5C 141.085,19.7352 143.252,21.4019 145,23.5C 146.225,23.1377 147.391,22.6377 148.5,22C 145.735,19.0337 146.068,16.367 149.5,14C 153.812,13.9829 155.645,16.1496 155,20.5C 153.221,22.0174 153.721,22.8508 156.5,23C 157.293,24.0852 157.96,25.2519 158.5,26.5C 157.584,30.7312 156.417,34.7312 155,38.5C 157.806,35.2122 160.973,32.5455 164.5,30.5 Z"/></g>
<g><path style="opacity:0.996" fill="#4dd29a" d="M 148.5,31.5 C 147.85,33.4352 147.517,35.4352 147.5,37.5C 145.393,38.4682 143.059,38.8016 140.5,38.5C 142.751,35.7052 145.418,33.3719 148.5,31.5 Z"/></g>
<g><path style="opacity:0.97" fill="#26775b" d="M 146.5,26.5 C 148.948,25.5269 151.615,25.1936 154.5,25.5C 155.353,31.6141 153.02,35.6141 147.5,37.5C 147.517,35.4352 147.85,33.4352 148.5,31.5C 148.5,31.1667 148.5,30.8333 148.5,30.5C 155.352,27.0135 154.686,25.6802 146.5,26.5 Z"/></g>
<g><path style="opacity:1" fill="#67d4ac" d="M 144.5,27.5 C 144.842,26.6618 145.508,26.3284 146.5,26.5C 154.686,25.6802 155.352,27.0135 148.5,30.5C 147.738,28.7376 146.404,27.7376 144.5,27.5 Z"/></g>
<g><path style="opacity:0.992" fill="#dee7e5" d="M 144.5,27.5 C 146.404,27.7376 147.738,28.7376 148.5,30.5C 148.5,30.8333 148.5,31.1667 148.5,31.5C 145.418,33.3719 142.751,35.7052 140.5,38.5C 138.392,33.6961 139.725,30.0294 144.5,27.5 Z"/></g>
<g><path style="opacity:0.659" fill="#074235" d="M 136.5,22.5 C 137.833,22.5 139.167,22.5 140.5,22.5C 140.5,23.5 140.5,24.5 140.5,25.5C 139.167,25.5 137.833,25.5 136.5,25.5C 136.5,24.5 136.5,23.5 136.5,22.5 Z"/></g>
<g><path style="opacity:0.475" fill="#8a8d90" d="M 149.5,16.5 C 150.5,16.5 151.5,16.5 152.5,16.5C 152.5,17.5 152.5,18.5 152.5,19.5C 151.5,19.5 150.5,19.5 149.5,19.5C 149.5,18.5 149.5,17.5 149.5,16.5 Z"/></g>
<g><path style="opacity:0.404" fill="#7c7e82" d="M 168.5,45.5 C 171.957,45.6672 172.29,46.6672 169.5,48.5C 168.614,47.675 168.281,46.675 168.5,45.5 Z"/></g>
<g><path style="opacity:0.782" fill="#d9dbdb" d="M 108.5,47.5 C 109.833,47.5 111.167,47.5 112.5,47.5C 112.5,48.8333 112.5,50.1667 112.5,51.5C 111.167,51.5 109.833,51.5 108.5,51.5C 108.5,50.1667 108.5,48.8333 108.5,47.5 Z"/></g>
<g><path style="opacity:0.992" fill="#0f6b51" d="M 96.5,45.5 C 100.756,44.4545 103.422,45.9545 104.5,50C 103.032,52.4688 101.198,54.6355 99,56.5C 97.699,56.3613 96.8656,55.6946 96.5,54.5C 97.4959,54.4142 98.3292,54.7476 99,55.5C 99.4955,53.5273 99.6621,51.5273 99.5,49.5C 98.5,48.1667 97.5,46.8333 96.5,45.5 Z"/></g>
<g><path style="opacity:1" fill="#46d298" d="M 99.5,49.5 C 99.6621,51.5273 99.4955,53.5273 99,55.5C 98.3292,54.7476 97.4959,54.4142 96.5,54.5C 95.4097,53.1429 94.0764,52.1429 92.5,51.5C 94.8333,50.8333 97.1667,50.1667 99.5,49.5 Z"/></g>
<g><path style="opacity:0.867" fill="#c1c6c8" d="M 175.5,52.5 C 178.861,53.2032 179.194,54.5365 176.5,56.5C 174.358,55.5629 174.024,54.2296 175.5,52.5 Z"/></g>
<g><path style="opacity:0.946" fill="#80b299" d="M 125.5,51.5 C 125.649,52.552 125.483,53.552 125,54.5C 123.293,56.0375 121.793,57.7041 120.5,59.5C 119.178,59.67 118.011,59.3366 117,58.5C 117.088,55.3578 118.588,52.8578 121.5,51C 123.066,50.235 124.399,50.4017 125.5,51.5 Z"/></g>
<g><path style="opacity:0.992" fill="#e6f0ed" d="M 166.5,53.5 C 166.167,54.5 165.5,55.1667 164.5,55.5C 162.007,55.1307 161.34,55.7973 162.5,57.5C 162.167,58.1667 161.833,58.8333 161.5,59.5C 159.167,61.5 156.833,63.5 154.5,65.5C 154.5,63.1667 154.5,60.8333 154.5,58.5C 157.167,53.9719 161.167,52.3053 166.5,53.5 Z"/></g>
<g><path style="opacity:1" fill="#61e2b4" d="M 164.5,55.5 C 164.167,56.5 163.5,57.1667 162.5,57.5C 161.34,55.7973 162.007,55.1307 164.5,55.5 Z"/></g>
<g><path style="opacity:0.007" fill="#030c0f" d="M 88.5,53.5 C 87.9389,60.2383 84.7722,61.9049 79,58.5C 78.9099,50.4079 82.0765,48.7412 88.5,53.5 Z"/></g>
<g><path style="opacity:0.024" fill="#0d1415" d="M 125.5,51.5 C 126.056,54.2225 126.056,56.8891 125.5,59.5C 105.497,79.5027 85.1638,99.1694 64.5,118.5C 63.5,118.5 62.5,118.5 61.5,118.5C 61.5,117.5 61.5,116.5 61.5,115.5C 77.2188,100.959 92.5521,85.9585 107.5,70.5C 111.009,68.8981 112.342,66.3981 111.5,63C 110.5,62.3333 109.5,62.3333 108.5,63C 102.837,69.5119 96.5038,75.0119 89.5,79.5C 84.5,84.1667 79.5,88.8333 74.5,93.5C 72.6061,92.3989 71.9394,91.0655 72.5,89.5C 77.4965,83.6705 82.9965,78.3372 89,73.5C 89.8542,71.3927 89.1875,70.0593 87,69.5C 81.0116,74.8203 75.0116,80.1536 69,85.5C 68.51,86.7932 68.3433,88.1266 68.5,89.5C 69.5,89.5 70.5,89.5 71.5,89.5C 70.4324,90.4345 69.099,90.7678 67.5,90.5C 67.1563,86.1055 66.4897,81.7722 65.5,77.5C 67.1171,78.5893 67.9504,80.256 68,82.5C 69.3603,80.8946 70.8603,79.3946 72.5,78C 68.8808,73.3781 64.8808,69.0448 60.5,65C 64.6667,61.5 68.5,57.6667 72,53.5C 74.288,55.3739 76.1214,57.7072 77.5,60.5C 81.0144,61.5142 82.8478,63.8476 83,67.5C 84.8449,65.6499 86.8449,65.3166 89,66.5C 92.9864,58.3734 96.3198,58.7067 99,67.5C 101.537,64.628 104.37,62.128 107.5,60C 111.684,58.8345 114.517,60.3345 116,64.5C 116.717,63.9558 117.217,63.2891 117.5,62.5C 118.738,62.19 118.738,61.69 117.5,61C 118.833,60.6667 120.167,60.3333 121.5,60C 121.272,59.6012 120.938,59.4346 120.5,59.5C 121.793,57.7041 123.293,56.0375 125,54.5C 125.483,53.552 125.649,52.552 125.5,51.5 Z M 80.5,69.5 C 79.1667,71.5 77.5,73.1667 75.5,74.5C 75.8333,71.5 77.5,69.8333 80.5,69.5 Z M 92.5,70.5 C 94.6456,70.6964 94.8122,71.6964 93,73.5C 92.5172,72.552 92.3505,71.552 92.5,70.5 Z"/></g>
<g><path style="opacity:0.812" fill="#babec0" d="M 82.5,53.5 C 85.8606,54.2032 86.1939,55.5365 83.5,57.5C 81.3576,56.5629 81.0243,55.2296 82.5,53.5 Z"/></g>
<g><path style="opacity:0.958" fill="#107553" d="M 166.5,53.5 C 167.338,53.8417 167.672,54.5084 167.5,55.5C 167.511,59.9458 165.511,63.2791 161.5,65.5C 161.5,63.5 161.5,61.5 161.5,59.5C 161.833,58.8333 162.167,58.1667 162.5,57.5C 163.5,57.1667 164.167,56.5 164.5,55.5C 165.5,55.1667 166.167,54.5 166.5,53.5 Z"/></g>
<g><path style="opacity:0.98" fill="#e5e6e6" d="M 70.5,57.5 C 72.284,58.5738 73.4506,60.2404 74,62.5C 75.3068,63.7717 76.8068,64.7717 78.5,65.5C 75.1667,66.8333 72.8333,69.1667 71.5,72.5C 70.1667,69.1667 67.8333,66.8333 64.5,65.5C 68.4177,64.2515 70.4177,61.5848 70.5,57.5 Z"/></g>
<g><path style="opacity:0.989" fill="#e9f2ef" d="M 129.5,58.5 C 129.5,58.8333 129.5,59.1667 129.5,59.5C 129.5,60.5 129.5,61.5 129.5,62.5C 104.45,85.7058 79.783,109.372 55.5,133.5C 55.298,131.05 55.6314,128.717 56.5,126.5C 59.5,124.167 62.1667,121.5 64.5,118.5C 85.1638,99.1694 105.497,79.5027 125.5,59.5C 126.708,58.7659 128.041,58.4326 129.5,58.5 Z"/></g>
<g><path style="opacity:0.663" fill="#c2c4c7" d="M 92.5,64.5 C 93.5,64.5 94.5,64.5 95.5,64.5C 95.5,65.5 95.5,66.5 95.5,67.5C 94.5,67.5 93.5,67.5 92.5,67.5C 92.5,66.5 92.5,65.5 92.5,64.5 Z"/></g>
<g><path style="opacity:0.97" fill="#e8eaea" d="M 72.5,89.5 C 72.1667,89.5 71.8333,89.5 71.5,89.5C 70.5,89.5 69.5,89.5 68.5,89.5C 68.3433,88.1266 68.51,86.7932 69,85.5C 75.0116,80.1536 81.0116,74.8203 87,69.5C 89.1875,70.0593 89.8542,71.3927 89,73.5C 82.9965,78.3372 77.4965,83.6705 72.5,89.5 Z"/></g>
<g><path style="opacity:0.977" fill="#056348" d="M 146.5,51.5 C 141.536,56.9647 136.37,62.298 131,67.5C 130.517,68.448 130.351,69.448 130.5,70.5C 131.5,70.5 132.5,70.5 133.5,70.5C 130.204,74.2976 126.704,77.9643 123,81.5C 122.51,82.7932 122.343,84.1266 122.5,85.5C 123.5,85.5 124.5,85.5 125.5,85.5C 122.204,89.2976 118.704,92.9643 115,96.5C 114.167,99.6667 115.333,100.833 118.5,100C 123,95.5 127.5,91 132,86.5C 132.49,85.2068 132.657,83.8734 132.5,82.5C 131.5,82.5 130.5,82.5 129.5,82.5C 132.106,78.2073 135.773,75.5406 140.5,74.5C 140.896,77.0444 140.229,79.2111 138.5,81C 140.325,82.4659 140.825,84.2992 140,86.5C 135.301,91.5336 130.301,96.2002 125,100.5C 124.362,103.93 125.862,105.263 129.5,104.5C 128.685,105.837 127.518,106.837 126,107.5C 125.51,108.793 125.343,110.127 125.5,111.5C 126.5,111.5 127.5,111.5 128.5,111.5C 124.5,115.833 120.5,120.167 116.5,124.5C 112.833,127.833 109.167,131.167 105.5,134.5C 104.329,133.655 102.995,132.989 101.5,132.5C 107.464,126.035 113.631,119.702 120,113.5C 120.833,110.333 119.667,109.167 116.5,110C 113.297,113.371 109.964,116.538 106.5,119.5C 102.916,118.007 100.583,119.34 99.5,123.5C 98.5832,124.127 97.5832,124.461 96.5,124.5C 101.072,119.418 105.905,114.418 111,109.5C 111.49,108.207 111.657,106.873 111.5,105.5C 110.127,105.343 108.793,105.51 107.5,106C 95.6877,116.978 84.021,128.145 72.5,139.5C 72.5,138.5 72.5,137.5 72.5,136.5C 71.5,136.5 70.5,136.5 69.5,136.5C 72.4625,133.036 75.6291,129.703 79,126.5C 79.49,125.207 79.6567,123.873 79.5,122.5C 78.5,122.5 77.5,122.5 76.5,122.5C 76.8417,121.662 77.5084,121.328 78.5,121.5C 79.1577,120.602 79.8243,119.602 80.5,118.5C 81.2978,120.078 81.7978,121.744 82,123.5C 83.4056,122.332 84.5723,122.665 85.5,124.5C 86.354,123.478 87.354,122.645 88.5,122C 87.1667,121.667 85.8333,121.333 84.5,121C 85.7375,120.768 86.7375,120.268 87.5,119.5C 90.8333,116.833 93.8333,113.833 96.5,110.5C 99.861,108.914 101.194,106.581 100.5,103.5C 100.697,101.52 100.03,99.5204 98.5,97.5C 98.8333,96.5 99.5,95.8333 100.5,95.5C 100.418,97.2517 101.251,98.2517 103,98.5C 108.306,94.1948 113.306,89.5281 118,84.5C 118.49,83.2068 118.657,81.8734 118.5,80.5C 117.5,80.5 116.5,80.5 115.5,80.5C 120.438,76.0641 125.271,71.3975 130,66.5C 130.195,65.1807 130.028,63.8474 129.5,62.5C 129.5,61.5 129.5,60.5 129.5,59.5C 133.57,56.9396 137.236,53.7729 140.5,50C 142.84,49.2516 144.84,49.7516 146.5,51.5 Z"/></g>
<g><path style="opacity:0.011" fill="#051111" d="M 167.5,55.5 C 167.338,57.5273 167.505,59.5273 168,61.5C 168.807,57.551 169.307,57.551 169.5,61.5C 171.035,63.0519 172.869,64.3852 175,65.5C 176.609,70.707 174.776,73.707 169.5,74.5C 169.509,76.3084 169.009,77.9751 168,79.5C 163.199,83.299 158.699,87.4657 154.5,92C 156.887,92.9761 158.054,94.8094 158,97.5C 172.056,95.9238 175.223,101.257 167.5,113.5C 170.825,118.909 169.658,122.242 164,123.5C 160.119,120.777 159.619,117.61 162.5,114C 156.364,111.869 153.698,107.702 154.5,101.5C 153.935,103.544 152.935,105.21 151.5,106.5C 150.5,106.5 149.5,106.5 148.5,106.5C 149.301,104.958 149.634,103.292 149.5,101.5C 147.142,101.253 145.142,101.919 143.5,103.5C 143.5,101.833 143.5,100.167 143.5,98.5C 150.495,90.6715 157.995,83.3381 166,76.5C 166.833,73.3333 165.667,72.1667 162.5,73C 151.302,83.3668 140.302,93.8668 129.5,104.5C 125.862,105.263 124.362,103.93 125,100.5C 130.301,96.2002 135.301,91.5336 140,86.5C 140.825,84.2992 140.325,82.4659 138.5,81C 140.229,79.2111 140.896,77.0444 140.5,74.5C 140.833,73.8333 141.167,73.1667 141.5,72.5C 142.222,72.9175 142.722,73.5842 143,74.5C 143.594,69.4657 146.427,67.1324 151.5,67.5C 151.5,65.5 151.5,63.5 151.5,61.5C 152.302,62.9516 152.802,64.6183 153,66.5C 153.183,63.6353 153.683,60.9686 154.5,58.5C 154.5,60.8333 154.5,63.1667 154.5,65.5C 156.833,66.8333 159.167,66.8333 161.5,65.5C 165.511,63.2791 167.511,59.9458 167.5,55.5 Z M 154.5,69.5 C 156.398,70.0893 158.398,70.256 160.5,70C 158.86,71.3946 157.36,72.8946 156,74.5C 155.392,72.8455 154.892,71.1789 154.5,69.5 Z M 144.5,77.5 C 145.882,78.8005 147.548,79.6339 149.5,80C 143.781,87.9551 142.114,87.1217 144.5,77.5 Z"/></g>
<g><path style="opacity:0.91" fill="#055345" d="M 168.5,66.5 C 169.833,66.5 171.167,66.5 172.5,66.5C 172.5,67.8333 172.5,69.1667 172.5,70.5C 171.167,70.5 169.833,70.5 168.5,70.5C 168.5,69.1667 168.5,67.8333 168.5,66.5 Z"/></g>
<g><path style="opacity:1" fill="#43c88f" d="M 161.5,59.5 C 161.5,61.5 161.5,63.5 161.5,65.5C 159.167,66.8333 156.833,66.8333 154.5,65.5C 156.833,63.5 159.167,61.5 161.5,59.5 Z"/></g>
<g><path style="opacity:0.949" fill="#caddd9" d="M 107.5,70.5 C 107.157,68.7748 106.157,68.2748 104.5,69C 100.924,73.0816 96.9244,76.5816 92.5,79.5C 91.5,79.5 90.5,79.5 89.5,79.5C 96.5038,75.0119 102.837,69.5119 108.5,63C 109.5,62.3333 110.5,62.3333 111.5,63C 112.342,66.3981 111.009,68.8981 107.5,70.5 Z"/></g>
<g><path style="opacity:0.925" fill="#43ba91" d="M 147.5,71.5 C 151.138,70.7366 152.638,72.0699 152,75.5C 147.415,77.4126 145.915,76.0793 147.5,71.5 Z"/></g>
<g><path style="opacity:0.007" fill="#050f10" d="M 65.5,77.5 C 66.4897,81.7722 67.1563,86.1055 67.5,90.5C 69.099,90.7678 70.4324,90.4345 71.5,89.5C 71.8333,89.5 72.1667,89.5 72.5,89.5C 71.9394,91.0655 72.6061,92.3989 74.5,93.5C 72.5,95.1667 70.5,96.8333 68.5,98.5C 67.7582,96.6503 66.7582,95.9836 65.5,96.5C 65.5,95.1667 65.5,93.8333 65.5,92.5C 62.9899,92.0535 60.9899,92.7202 59.5,94.5C 57.1667,96.5 54.8333,98.5 52.5,100.5C 52.6716,99.5084 52.3382,98.8417 51.5,98.5C 54.4251,93.1993 58.7585,89.5326 64.5,87.5C 59.9796,87.5656 56.8129,85.5656 55,81.5C 52.0344,83.4651 48.8678,83.4651 45.5,81.5C 42.0956,78.2962 41.5956,74.6295 44,70.5C 51.0733,64.8557 56.0733,66.5224 59,75.5C 60.5333,75.0563 62.0333,74.723 63.5,74.5C 64.9185,75.0047 65.5852,76.0047 65.5,77.5 Z"/></g>
<g><path style="opacity:0.958" fill="#e0e1e1" d="M 59.5,78.5 C 63.6759,77.8307 65.0093,79.3307 63.5,83C 62.2068,83.49 60.8734,83.6567 59.5,83.5C 59.5,81.8333 59.5,80.1667 59.5,78.5 Z"/></g>
<g><path style="opacity:0.959" fill="#286f57" d="M 52.5,70.5 C 55.0336,73.1423 55.0336,75.9757 52.5,79C 46.9063,80.4276 44.9063,78.5943 46.5,73.5C 46.2322,75.099 46.5655,76.4324 47.5,77.5C 51.0823,77.7929 52.4157,76.4596 51.5,73.5C 52.1098,72.609 52.4431,71.609 52.5,70.5 Z"/></g>
<g><path style="opacity:1" fill="#61d9a4" d="M 51.5,73.5 C 52.4157,76.4596 51.0823,77.7929 47.5,77.5C 48.4023,75.6593 49.7356,74.326 51.5,73.5 Z"/></g>
<g><path style="opacity:0.981" fill="#e3ebe8" d="M 52.5,70.5 C 52.4431,71.609 52.1098,72.609 51.5,73.5C 49.7356,74.326 48.4023,75.6593 47.5,77.5C 46.5655,76.4324 46.2322,75.099 46.5,73.5C 46.5,72.5 46.5,71.5 46.5,70.5C 48.5,70.5 50.5,70.5 52.5,70.5 Z"/></g>
<g><path style="opacity:0.005" fill="#050e10" d="M 47.5,93.5 C 43.7492,87.3583 45.4159,84.525 52.5,85C 54.9845,87.2838 55.1511,89.7838 53,92.5C 51.3005,93.4061 49.4672,93.7394 47.5,93.5 Z"/></g>
<g><path style="opacity:0.973" fill="#50ce9b" d="M 107.5,70.5 C 92.5521,85.9585 77.2188,100.959 61.5,115.5C 59.0431,118.751 57.3764,122.418 56.5,126.5C 55.6314,128.717 55.298,131.05 55.5,133.5C 54.6862,131.369 54.1862,129.036 54,126.5C 53.5469,133.177 53.0469,139.844 52.5,146.5C 51.1667,145.833 50.1667,144.833 49.5,143.5C 51.045,142.77 51.8784,141.437 52,139.5C 50.9197,129.557 53.2531,120.557 59,112.5C 70.6991,101.967 81.8657,90.9671 92.5,79.5C 96.9244,76.5816 100.924,73.0816 104.5,69C 106.157,68.2748 107.157,68.7748 107.5,70.5 Z"/></g>
<g><path style="opacity:0.993" fill="#44c895" d="M 143.5,98.5 C 138.795,103.207 133.795,107.54 128.5,111.5C 127.5,111.5 126.5,111.5 125.5,111.5C 125.343,110.127 125.51,108.793 126,107.5C 127.518,106.837 128.685,105.837 129.5,104.5C 140.302,93.8668 151.302,83.3668 162.5,73C 165.667,72.1667 166.833,73.3333 166,76.5C 157.995,83.3381 150.495,90.6715 143.5,98.5 Z"/></g>
<g><path style="opacity:0.008" fill="#050d0f" d="M 164.5,84.5 C 171.968,85.6744 173.301,89.1744 168.5,95C 163.214,95.3745 161.048,92.8745 162,87.5C 163.045,86.6266 163.878,85.6266 164.5,84.5 Z"/></g>
<g><path style="opacity:1" fill="#8ac1a2" d="M 129.5,82.5 C 130.5,82.5 131.5,82.5 132.5,82.5C 132.657,83.8734 132.49,85.2068 132,86.5C 127.5,91 123,95.5 118.5,100C 115.333,100.833 114.167,99.6667 115,96.5C 118.704,92.9643 122.204,89.2976 125.5,85.5C 126.833,84.5 128.167,83.5 129.5,82.5 Z"/></g>
<g><path style="opacity:0.627" fill="#b8bbbc" d="M 48.5,87.5 C 49.5,87.5 50.5,87.5 51.5,87.5C 51.5,88.5 51.5,89.5 51.5,90.5C 50.5,90.5 49.5,90.5 48.5,90.5C 48.5,89.5 48.5,88.5 48.5,87.5 Z"/></g>
<g><path style="opacity:0.941" fill="#cdd0d2" d="M 165.5,87.5 C 168.956,88.5362 169.29,90.2029 166.5,92.5C 164.296,91.218 163.962,89.5514 165.5,87.5 Z"/></g>
<g><path style="opacity:0.004" fill="#000a0d" d="M 37.5,89.5 C 36.8333,89.5 36.5,89.8333 36.5,90.5C 35.6618,90.8417 35.3284,91.5084 35.5,92.5C 30.4725,92.4872 28.4725,90.1539 29.5,85.5C 34.5301,82.0914 37.1968,83.4248 37.5,89.5 Z"/></g>
<g><path style="opacity:0.439" fill="#878a8b" d="M 31.5,86.5 C 32.5,86.5 33.5,86.5 34.5,86.5C 34.5,87.5 34.5,88.5 34.5,89.5C 33.5,89.5 32.5,89.5 31.5,89.5C 31.5,88.5 31.5,87.5 31.5,86.5 Z"/></g>
<g><path style="opacity:1" fill="#051514" d="M 115.5,80.5 C 116.5,80.5 117.5,80.5 118.5,80.5C 118.657,81.8734 118.49,83.2068 118,84.5C 113.306,89.5281 108.306,94.1948 103,98.5C 101.251,98.2517 100.418,97.2517 100.5,95.5C 105.167,90.1667 110.167,85.1667 115.5,80.5 Z"/></g>
<g><path style="opacity:0.986" fill="#48bd96" d="M 65.5,96.5 C 64.609,97.1098 63.609,97.4431 62.5,97.5C 61.8333,96.1667 60.8333,95.1667 59.5,94.5C 60.9899,92.7202 62.9899,92.0535 65.5,92.5C 65.5,93.8333 65.5,95.1667 65.5,96.5 Z"/></g>
<g><path style="opacity:0.974" fill="#e6e7e7" d="M 59.5,94.5 C 60.8333,95.1667 61.8333,96.1667 62.5,97.5C 56.1302,103.703 50.2969,110.369 45,117.5C 38.3372,138.841 45.5039,153.174 66.5,160.5C 66.5394,161.583 66.8728,162.583 67.5,163.5C 67.0431,164.298 66.3764,164.631 65.5,164.5C 51.7972,161.303 42.6305,152.97 38,139.5C 36.7715,130.894 37.6049,122.561 40.5,114.5C 44.0963,109.564 48.0963,104.897 52.5,100.5C 54.8333,98.5 57.1667,96.5 59.5,94.5 Z"/></g>
<g><path style="opacity:0.968" fill="#dae5e2" d="M 167.5,101.5 C 165.928,102.687 164.261,103.687 162.5,104.5C 161.167,104.5 159.833,104.5 158.5,104.5C 158.178,101.468 159.511,99.8014 162.5,99.5C 164.514,99.4365 166.181,100.103 167.5,101.5 Z"/></g>
<g><path style="opacity:0.009" fill="#0a1213" d="M 47.5,93.5 C 48.4871,95.5511 49.8205,97.2178 51.5,98.5C 52.3382,98.8417 52.6716,99.5084 52.5,100.5C 48.0963,104.897 44.0963,109.564 40.5,114.5C 40.5654,114.062 40.3988,113.728 40,113.5C 39.3028,115.584 38.1361,117.251 36.5,118.5C 36.1667,117.167 35.8333,117.167 35.5,118.5C 29.045,117.757 27.3783,114.257 30.5,108C 34.4755,106.621 37.3088,107.787 39,111.5C 39.7845,109.714 40.9512,108.214 42.5,107C 41.1667,106.667 39.8333,106.333 38.5,106C 37,103.167 34.8333,101 32,99.5C 31.1762,96.1604 32.3429,93.827 35.5,92.5C 36.3382,92.1583 36.6716,91.4916 36.5,90.5C 37.1667,90.5 37.5,90.1667 37.5,89.5C 38.4822,88.8592 39.4822,88.1925 40.5,87.5C 42.8598,89.6616 45.1931,91.6616 47.5,93.5 Z"/></g>
<g><path style="opacity:0.968" fill="#e0e1e1" d="M 39.5,91.5 C 41.3765,93.3632 43.3765,95.1966 45.5,97C 43.6487,98.6837 41.982,100.517 40.5,102.5C 39.018,100.517 37.3513,98.6837 35.5,97C 37.8189,95.8526 39.1523,94.0193 39.5,91.5 Z"/></g>
<g><path style="opacity:1" fill="#88c4a7" d="M 100.5,103.5 C 101.194,106.581 99.861,108.914 96.5,110.5C 96.7678,108.901 96.4345,107.568 95.5,106.5C 96.4006,104.273 98.0672,103.273 100.5,103.5 Z"/></g>
<g><path style="opacity:0.988" fill="#43c594" d="M 148.5,106.5 C 145.192,108.284 143.525,107.284 143.5,103.5C 145.142,101.919 147.142,101.253 149.5,101.5C 149.634,103.292 149.301,104.958 148.5,106.5 Z"/></g>
<g><path style="opacity:1" fill="#50d09e" d="M 158.5,104.5 C 159.833,104.5 161.167,104.5 162.5,104.5C 161.775,108.031 160.442,108.698 158.5,106.5C 158.5,105.833 158.5,105.167 158.5,104.5 Z"/></g>
<g><path style="opacity:0.956" fill="#1a6d53" d="M 167.5,101.5 C 168.258,103.981 168.258,106.648 167.5,109.5C 164.5,109.5 161.5,109.5 158.5,109.5C 158.5,108.5 158.5,107.5 158.5,106.5C 160.442,108.698 161.775,108.031 162.5,104.5C 164.261,103.687 165.928,102.687 167.5,101.5 Z"/></g>
<g><path style="opacity:1" fill="#4bd89e" d="M 129.5,62.5 C 130.028,63.8474 130.195,65.1807 130,66.5C 125.271,71.3975 120.438,76.0641 115.5,80.5C 110.167,85.1667 105.167,90.1667 100.5,95.5C 99.5,95.8333 98.8333,96.5 98.5,97.5C 91.2046,103.625 84.038,109.958 77,116.5C 76.3872,118.495 76.8872,120.162 78.5,121.5C 77.5084,121.328 76.8417,121.662 76.5,122.5C 70.8686,127.63 65.3686,132.964 60,138.5C 59.1458,140.607 59.8125,141.941 62,142.5C 64.6522,140.68 67.1522,138.68 69.5,136.5C 70.5,136.5 71.5,136.5 72.5,136.5C 72.5,137.5 72.5,138.5 72.5,139.5C 71.7659,140.708 71.4326,142.041 71.5,143.5C 66.7789,149.336 60.7789,151.003 53.5,148.5C 53.1667,147.833 52.8333,147.167 52.5,146.5C 53.0469,139.844 53.5469,133.177 54,126.5C 54.1862,129.036 54.6862,131.369 55.5,133.5C 79.783,109.372 104.45,85.7058 129.5,62.5 Z"/></g>
<g><path style="opacity:1" fill="#e6f1ee" d="M 95.5,106.5 C 96.4345,107.568 96.7678,108.901 96.5,110.5C 93.8333,113.833 90.8333,116.833 87.5,119.5C 86.5,119.5 85.5,119.5 84.5,119.5C 84.3433,118.127 84.51,116.793 85,115.5C 88.6668,112.664 92.1668,109.664 95.5,106.5 Z"/></g>
<g><path style="opacity:0.013" fill="#051011" d="M 143.5,98.5 C 143.5,100.167 143.5,101.833 143.5,103.5C 143.525,107.284 145.192,108.284 148.5,106.5C 149.5,106.5 150.5,106.5 151.5,106.5C 150.043,110.049 147.377,111.216 143.5,110C 141.951,108.786 140.785,107.286 140,105.5C 138.167,108 136,110.167 133.5,112C 138.152,111.651 140.652,113.817 141,118.5C 143.516,116.076 146.016,113.743 148.5,111.5C 151.217,114.892 154.384,117.892 158,120.5C 158.667,121.5 158.667,122.5 158,123.5C 154.64,125.36 152.14,128.027 150.5,131.5C 149.109,132.645 147.776,132.645 146.5,131.5C 144.338,127.844 141.671,124.677 138.5,122C 133.337,122.834 130.504,120.667 130,115.5C 129.167,116.333 128.333,117.167 127.5,118C 130.024,119.883 131.358,122.383 131.5,125.5C 135.4,125.34 138.067,127.007 139.5,130.5C 140.964,139.013 137.631,144.346 129.5,146.5C 131.312,146.426 133.312,146.759 135.5,147.5C 137.463,151.425 136.463,154.092 132.5,155.5C 130.575,155.41 129.408,154.41 129,152.5C 128.283,153.044 127.783,153.711 127.5,154.5C 126.833,153.167 126.167,151.833 125.5,150.5C 125.784,148.585 125.451,146.919 124.5,145.5C 120.15,143.418 116.817,144.418 114.5,148.5C 114.167,148.5 113.833,148.5 113.5,148.5C 112.596,148.465 111.93,147.965 111.5,147C 112.289,145.374 113.289,143.874 114.5,142.5C 114.043,141.702 113.376,141.369 112.5,141.5C 114.239,138.757 116.573,136.757 119.5,135.5C 118.167,136.5 118.167,137.5 119.5,138.5C 119.047,139.458 118.381,140.292 117.5,141C 120.221,141.568 122.888,141.901 125.5,142C 123.081,140.491 122.081,138.325 122.5,135.5C 123.249,134.469 123.915,133.302 124.5,132C 123.906,131.536 123.239,131.369 122.5,131.5C 122.5,130.833 122.167,130.5 121.5,130.5C 120.833,130.5 120.5,130.167 120.5,129.5C 120.5,128.833 120.167,128.5 119.5,128.5C 119.158,127.662 118.492,127.328 117.5,127.5C 117.443,126.391 117.11,125.391 116.5,124.5C 120.5,120.167 124.5,115.833 128.5,111.5C 133.795,107.54 138.795,103.207 143.5,98.5 Z M 122.5,135.5 C 122.081,138.325 123.081,140.491 125.5,142C 122.888,141.901 120.221,141.568 117.5,141C 118.381,140.292 119.047,139.458 119.5,138.5C 120.728,137.694 121.728,136.694 122.5,135.5 Z"/></g>
<g><path style="opacity:0.829" fill="#d4d7d6" d="M 31.5,110.5 C 32.8333,110.5 34.1667,110.5 35.5,110.5C 35.5,111.833 35.5,113.167 35.5,114.5C 34.1667,114.5 32.8333,114.5 31.5,114.5C 31.5,113.167 31.5,111.833 31.5,110.5 Z"/></g>
<g><path style="opacity:0.989" fill="#e9efee" d="M 89.5,79.5 C 90.5,79.5 91.5,79.5 92.5,79.5C 81.8657,90.9671 70.6991,101.967 59,112.5C 53.2531,120.557 50.9197,129.557 52,139.5C 51.8784,141.437 51.045,142.77 49.5,143.5C 44.8054,133.364 45.6387,123.697 52,114.5C 58.0035,109.663 63.5035,104.33 68.5,98.5C 70.5,96.8333 72.5,95.1667 74.5,93.5C 79.5,88.8333 84.5,84.1667 89.5,79.5 Z"/></g>
<g><path style="opacity:1" fill="#107153" d="M 98.5,97.5 C 100.03,99.5204 100.697,101.52 100.5,103.5C 98.0672,103.273 96.4006,104.273 95.5,106.5C 92.1668,109.664 88.6668,112.664 85,115.5C 84.51,116.793 84.3433,118.127 84.5,119.5C 85.5,119.5 86.5,119.5 87.5,119.5C 86.7375,120.268 85.7375,120.768 84.5,121C 85.8333,121.333 87.1667,121.667 88.5,122C 87.354,122.645 86.354,123.478 85.5,124.5C 84.5723,122.665 83.4056,122.332 82,123.5C 81.7978,121.744 81.2978,120.078 80.5,118.5C 79.8243,119.602 79.1577,120.602 78.5,121.5C 76.8872,120.162 76.3872,118.495 77,116.5C 84.038,109.958 91.2046,103.625 98.5,97.5 Z"/></g>
<g><path style="opacity:0.716" fill="#bfc2c2" d="M 133.5,115.5 C 134.833,115.5 136.167,115.5 137.5,115.5C 137.5,116.5 137.5,117.5 137.5,118.5C 136.167,118.5 134.833,118.5 133.5,118.5C 133.5,117.5 133.5,116.5 133.5,115.5 Z"/></g>
<g><path style="opacity:0.994" fill="#03674b" d="M 106.5,119.5 C 99.521,127.146 92.1877,134.479 84.5,141.5C 83.5713,142.689 83.238,144.022 83.5,145.5C 85.6547,145.628 87.6547,145.128 89.5,144C 93.369,139.963 97.369,136.13 101.5,132.5C 102.995,132.989 104.329,133.655 105.5,134.5C 101.527,137.806 97.8604,141.473 94.5,145.5C 88.8834,150.928 82.2167,154.261 74.5,155.5C 66.0961,156.921 59.0961,154.588 53.5,148.5C 60.7789,151.003 66.7789,149.336 71.5,143.5C 72.7382,144.412 74.0715,144.579 75.5,144C 82.0893,136.905 89.0893,130.405 96.5,124.5C 97.5832,124.461 98.5832,124.127 99.5,123.5C 100.583,119.34 102.916,118.007 106.5,119.5 Z"/></g>
<g><path style="opacity:0.971" fill="#e0e1e1" d="M 147.5,115.5 C 149.486,117.893 151.819,120.06 154.5,122C 152.024,123.309 150.024,125.142 148.5,127.5C 146.833,125.167 144.833,123.167 142.5,121.5C 145.578,120.676 147.245,118.676 147.5,115.5 Z"/></g>
<g><path style="opacity:0.761" fill="#cccfd1" d="M 163.5,116.5 C 164.5,116.5 165.5,116.5 166.5,116.5C 166.5,117.5 166.5,118.5 166.5,119.5C 165.5,119.5 164.5,119.5 163.5,119.5C 163.5,118.5 163.5,117.5 163.5,116.5 Z"/></g>
<g><path style="opacity:0.995" fill="#147856" d="M 61.5,115.5 C 61.5,116.5 61.5,117.5 61.5,118.5C 62.5,118.5 63.5,118.5 64.5,118.5C 62.1667,121.5 59.5,124.167 56.5,126.5C 57.3764,122.418 59.0431,118.751 61.5,115.5 Z"/></g>
<g><path style="opacity:1" fill="#021211" d="M 101.5,132.5 C 97.369,136.13 93.369,139.963 89.5,144C 87.6547,145.128 85.6547,145.628 83.5,145.5C 83.238,144.022 83.5713,142.689 84.5,141.5C 92.1877,134.479 99.521,127.146 106.5,119.5C 109.964,116.538 113.297,113.371 116.5,110C 119.667,109.167 120.833,110.333 120,113.5C 113.631,119.702 107.464,126.035 101.5,132.5 Z"/></g>
<g><path style="opacity:0.963" fill="#d5d7d8" d="M 124.5,121.5 C 126.635,121.147 127.968,121.98 128.5,124C 127.667,126.167 126.167,127.667 124,128.5C 122.5,128.333 121.667,127.5 121.5,126C 122.315,124.357 123.315,122.857 124.5,121.5 Z"/></g>
<g><path style="opacity:0.981" fill="#e1ebe9" d="M 135.5,130.5 C 134.167,131.167 133.167,132.167 132.5,133.5C 130.784,135.025 128.784,136.025 126.5,136.5C 126.5,136.167 126.5,135.833 126.5,135.5C 127.207,129.686 130.207,128.02 135.5,130.5 Z"/></g>
<g><path style="opacity:1" fill="#031312" d="M 96.5,124.5 C 89.0893,130.405 82.0893,136.905 75.5,144C 74.0715,144.579 72.7382,144.412 71.5,143.5C 71.4326,142.041 71.7659,140.708 72.5,139.5C 84.021,128.145 95.6877,116.978 107.5,106C 108.793,105.51 110.127,105.343 111.5,105.5C 111.657,106.873 111.49,108.207 111,109.5C 105.905,114.418 101.072,119.418 96.5,124.5 Z"/></g>
<g><path style="opacity:0.988" fill="#15785a" d="M 135.5,130.5 C 135.5,132.833 135.5,135.167 135.5,137.5C 133.738,136.738 132.738,135.404 132.5,133.5C 133.167,132.167 134.167,131.167 135.5,130.5 Z"/></g>
<g><path style="opacity:1" fill="#0c1b18" d="M 76.5,122.5 C 77.5,122.5 78.5,122.5 79.5,122.5C 79.6567,123.873 79.49,125.207 79,126.5C 75.6291,129.703 72.4625,133.036 69.5,136.5C 67.1522,138.68 64.6522,140.68 62,142.5C 59.8125,141.941 59.1458,140.607 60,138.5C 65.3686,132.964 70.8686,127.63 76.5,122.5 Z"/></g>
<g><path style="opacity:0.094" fill="#040f10" d="M 116.5,124.5 C 117.11,125.391 117.443,126.391 117.5,127.5C 117.842,128.338 118.508,128.672 119.5,128.5C 120.167,128.5 120.5,128.833 120.5,129.5C 120.5,130.167 120.833,130.5 121.5,130.5C 122.167,130.5 122.5,130.833 122.5,131.5C 122.5,132.833 122.5,134.167 122.5,135.5C 121.728,136.694 120.728,137.694 119.5,138.5C 118.167,137.5 118.167,136.5 119.5,135.5C 119.592,131.929 117.926,130.762 114.5,132C 110.667,135.833 106.833,139.667 103,143.5C 102.51,144.793 102.343,146.127 102.5,147.5C 103.873,147.657 105.207,147.49 106.5,147C 108.37,144.96 110.37,143.127 112.5,141.5C 113.376,141.369 114.043,141.702 114.5,142.5C 113.289,143.874 112.289,145.374 111.5,147C 111.93,147.965 112.596,148.465 113.5,148.5C 113.5,149.833 113.5,151.167 113.5,152.5C 118.633,159.555 122.633,158.888 125.5,150.5C 126.167,151.833 126.833,153.167 127.5,154.5C 125.917,158.759 122.917,161.092 118.5,161.5C 119.002,169.486 115.835,171.486 109,167.5C 107.204,165.598 107.037,163.598 108.5,161.5C 110.01,160.164 111.677,158.997 113.5,158C 109.798,155.66 108.632,152.494 110,148.5C 107.594,151.311 104.761,151.977 101.5,150.5C 101.5,149.833 101.167,149.5 100.5,149.5C 100.5,148.833 100.167,148.5 99.5,148.5C 99.6716,147.508 99.3382,146.842 98.5,146.5C 97.4324,145.566 96.099,145.232 94.5,145.5C 97.8604,141.473 101.527,137.806 105.5,134.5C 109.167,131.167 112.833,127.833 116.5,124.5 Z"/></g>
<g><path style="opacity:1" fill="#49d89c" d="M 132.5,133.5 C 132.738,135.404 133.738,136.738 135.5,137.5C 135.5,137.833 135.5,138.167 135.5,138.5C 132.123,138.932 129.123,138.265 126.5,136.5C 128.784,136.025 130.784,135.025 132.5,133.5 Z"/></g>
<g><path style="opacity:0.024" fill="#0f1515" d="M 65.5,96.5 C 66.7582,95.9836 67.7582,96.6503 68.5,98.5C 63.5035,104.33 58.0035,109.663 52,114.5C 45.6387,123.697 44.8054,133.364 49.5,143.5C 50.1667,144.833 51.1667,145.833 52.5,146.5C 52.8333,147.167 53.1667,147.833 53.5,148.5C 59.0961,154.588 66.0961,156.921 74.5,155.5C 64.2998,157.672 64.2998,159.005 74.5,159.5C 72.0521,160.473 69.3854,160.806 66.5,160.5C 45.5039,153.174 38.3372,138.841 45,117.5C 50.2969,110.369 56.1302,103.703 62.5,97.5C 63.609,97.4431 64.609,97.1098 65.5,96.5 Z"/></g>
<g><path style="opacity:0.898" fill="#0f664c" d="M 126.5,135.5 C 126.5,135.833 126.5,136.167 126.5,136.5C 129.123,138.265 132.123,138.932 135.5,138.5C 132.476,143.79 129.309,143.79 126,138.5C 125.26,137.251 125.427,136.251 126.5,135.5 Z"/></g>
<g><path style="opacity:0.979" fill="#85b99e" d="M 119.5,135.5 C 116.573,136.757 114.239,138.757 112.5,141.5C 110.37,143.127 108.37,144.96 106.5,147C 105.207,147.49 103.873,147.657 102.5,147.5C 102.343,146.127 102.51,144.793 103,143.5C 106.833,139.667 110.667,135.833 114.5,132C 117.926,130.762 119.592,131.929 119.5,135.5 Z"/></g>
<g><path style="opacity:0.004" fill="#050e10" d="M 143.5,134.5 C 150.03,134.243 152.197,137.243 150,143.5C 145.287,146.797 141.787,145.797 139.5,140.5C 139.937,137.775 141.27,135.775 143.5,134.5 Z"/></g>
<g><path style="opacity:0.88" fill="#cfd1d3" d="M 144.5,137.5 C 147.084,138.048 148.084,139.715 147.5,142.5C 146.167,142.5 144.833,142.5 143.5,142.5C 143.366,140.708 143.699,139.042 144.5,137.5 Z"/></g>
<g><path style="opacity:0.012" fill="#030e0f" d="M 94.5,145.5 C 96.099,145.232 97.4324,145.566 98.5,146.5C 95.8136,147.988 96.1469,148.655 99.5,148.5C 100.167,148.5 100.5,148.833 100.5,149.5C 101.167,149.5 101.5,149.833 101.5,150.5C 101.414,151.496 101.748,152.329 102.5,153C 108.679,153 110.679,155.834 108.5,161.5C 106.958,162.301 105.292,162.634 103.5,162.5C 105.185,169.012 103.018,173.345 97,175.5C 89.1949,173.229 87.6949,168.896 92.5,162.5C 92.3333,162.167 92.1667,161.833 92,161.5C 91.2917,162.381 90.4584,163.047 89.5,163.5C 89.8333,162.167 90.1667,160.833 90.5,159.5C 90.853,157.365 90.0197,156.032 88,155.5C 83.6845,157.581 79.1845,158.915 74.5,159.5C 64.2998,159.005 64.2998,157.672 74.5,155.5C 82.2167,154.261 88.8834,150.928 94.5,145.5 Z M 91.5,151.5 C 92.5735,152.251 92.7401,153.251 92,154.5C 90.2716,153.648 90.105,152.648 91.5,151.5 Z M 100.5,160.5 C 98.1667,160.5 95.8333,160.5 93.5,160.5C 93.3433,159.127 93.51,157.793 94,156.5C 96.4254,157.643 98.5921,158.976 100.5,160.5 Z"/></g>
<g><path style="opacity:0.986" fill="#e2eae8" d="M 124.5,145.5 C 124.106,147.71 122.773,149.043 120.5,149.5C 118.435,149.483 116.435,149.15 114.5,148.5C 116.817,144.418 120.15,143.418 124.5,145.5 Z"/></g>
<g><path style="opacity:1" fill="#4ed59c" d="M 113.5,148.5 C 113.833,148.5 114.167,148.5 114.5,148.5C 116.435,149.15 118.435,149.483 120.5,149.5C 120.662,151.527 120.495,153.527 120,155.5C 118.491,153.081 116.325,152.081 113.5,152.5C 113.5,151.167 113.5,149.833 113.5,148.5 Z"/></g>
<g><path style="opacity:0.624" fill="#cdd0d3" d="M 131.5,149.5 C 133.337,149.639 133.67,150.306 132.5,151.5C 131.702,151.043 131.369,150.376 131.5,149.5 Z"/></g>
<g><path style="opacity:0.835" fill="#0d6b4e" d="M 124.5,145.5 C 125.451,146.919 125.784,148.585 125.5,150.5C 122.633,158.888 118.633,159.555 113.5,152.5C 116.325,152.081 118.491,153.081 120,155.5C 120.495,153.527 120.662,151.527 120.5,149.5C 122.773,149.043 124.106,147.71 124.5,145.5 Z"/></g>
<g><path style="opacity:0.608" fill="#b4b7b7" d="M 103.5,156.5 C 104.5,156.5 105.5,156.5 106.5,156.5C 106.5,157.5 106.5,158.5 106.5,159.5C 105.5,159.5 104.5,159.5 103.5,159.5C 103.5,158.5 103.5,157.5 103.5,156.5 Z"/></g>
<g><path style="opacity:0.984" fill="#88b69e" d="M 90.5,159.5 C 82.6544,164.403 74.3211,166.069 65.5,164.5C 66.3764,164.631 67.0431,164.298 67.5,163.5C 66.8728,162.583 66.5394,161.583 66.5,160.5C 69.3854,160.806 72.0521,160.473 74.5,159.5C 79.1845,158.915 83.6845,157.581 88,155.5C 90.0197,156.032 90.853,157.365 90.5,159.5 Z"/></g>
<g><path style="opacity:0.008" fill="#091112" d="M 40.5,114.5 C 37.6049,122.561 36.7715,130.894 38,139.5C 42.6305,152.97 51.7972,161.303 65.5,164.5C 74.3211,166.069 82.6544,164.403 90.5,159.5C 90.1667,160.833 89.8333,162.167 89.5,163.5C 87.6181,164.751 85.6181,165.918 83.5,167C 86.5746,170.803 85.9079,173.636 81.5,175.5C 79.9707,175.471 78.804,174.804 78,173.5C 77.7489,171.567 77.2489,169.734 76.5,168C 51.1743,168.687 36.841,156.353 33.5,131C 33.8995,126.771 34.5661,122.604 35.5,118.5C 35.8333,118.5 36.1667,118.5 36.5,118.5C 38.1361,117.251 39.3028,115.584 40,113.5C 40.3988,113.728 40.5654,114.062 40.5,114.5 Z"/></g>
<g><path style="opacity:0.714" fill="#c8cccd" d="M 111.5,162.5 C 112.833,162.5 114.167,162.5 115.5,162.5C 115.5,163.833 115.5,165.167 115.5,166.5C 114.167,166.5 112.833,166.5 111.5,166.5C 111.5,165.167 111.5,163.833 111.5,162.5 Z"/></g>
<g><path style="opacity:0.965" fill="#ecf4f3" d="M 99.5,166.5 C 97.6208,167.341 95.6208,167.675 93.5,167.5C 93.3284,166.508 93.6618,165.842 94.5,165.5C 96.7264,163.82 98.3931,164.153 99.5,166.5 Z"/></g>
<g><path style="opacity:0.624" fill="#748a85" d="M 100.5,166.5 C 100.167,166.5 99.8333,166.5 99.5,166.5C 98.3931,164.153 96.7264,163.82 94.5,165.5C 95.9179,163.692 97.9179,163.025 100.5,163.5C 100.5,164.5 100.5,165.5 100.5,166.5 Z"/></g>
<g><path style="opacity:0.859" fill="#3d9976" d="M 99.5,166.5 C 99.8333,166.5 100.167,166.5 100.5,166.5C 99.7322,171.654 97.2322,172.654 93,169.5C 92.3083,168.563 92.475,167.897 93.5,167.5C 95.6208,167.675 97.6208,167.341 99.5,166.5 Z"/></g>
<g><path style="opacity:0.655" fill="#b7b8bc" d="M 80.5,169.5 C 82.4646,169.948 82.7979,170.948 81.5,172.5C 80.6143,171.675 80.281,170.675 80.5,169.5 Z"/></g>
<g><path style="opacity:0.025" fill="#010d0f" d="M 142.5,195.5 C 141.432,194.566 140.099,194.232 138.5,194.5C 138.5,194.167 138.5,193.833 138.5,193.5C 147.041,191.917 155.707,190.583 164.5,189.5C 164.291,188.914 163.957,188.414 163.5,188C 161.19,187.503 158.857,187.337 156.5,187.5C 151.651,186.834 146.651,186.167 141.5,185.5C 117.176,184.5 92.8425,184.167 68.5,184.5C 66.9724,183.691 65.3057,183.024 63.5,182.5C 71.5058,181.725 79.6724,181.058 88,180.5C 96.5093,181.784 105.009,181.784 113.5,180.5C 130.69,181.78 147.69,183.28 164.5,185C 169.427,189.407 168.427,192.574 161.5,194.5C 160.914,194.291 160.414,193.957 160,193.5C 154.259,194.591 148.426,195.258 142.5,195.5 Z"/></g>
<g><path style="opacity:0.93" fill="#062924" d="M 68.5,184.5 C 92.8425,184.167 117.176,184.5 141.5,185.5C 146.651,186.167 151.651,186.834 156.5,187.5C 147.955,187.495 139.455,186.828 131,185.5C 128.167,185.667 125.333,185.833 122.5,186C 123.416,186.278 124.082,186.778 124.5,187.5C 103.791,187.086 83.1243,187.753 62.5,189.5C 65.9773,190.167 69.3107,190.834 72.5,191.5C 68.9186,192.26 65.2519,192.76 61.5,193C 87.1645,193.5 112.831,193.667 138.5,193.5C 138.5,193.833 138.5,194.167 138.5,194.5C 103.374,195.436 68.3738,194.102 33.5,190.5C 33.5,189.5 33.5,188.5 33.5,187.5C 45.2278,187.075 56.8945,186.075 68.5,184.5 Z"/></g>
<g><path style="opacity:0.07" fill="#010e11" d="M 124.5,187.5 C 128.499,188.035 132.499,188.701 136.5,189.5C 133.215,190.324 129.882,190.824 126.5,191C 108.503,191.5 90.5031,191.667 72.5,191.5C 69.3107,190.834 65.9773,190.167 62.5,189.5C 83.1243,187.753 103.791,187.086 124.5,187.5 Z"/></g>
<g><path style="opacity:0.926" fill="#052d26" d="M 156.5,187.5 C 158.857,187.337 161.19,187.503 163.5,188C 163.957,188.414 164.291,188.914 164.5,189.5C 155.707,190.583 147.041,191.917 138.5,193.5C 112.831,193.667 87.1645,193.5 61.5,193C 65.2519,192.76 68.9186,192.26 72.5,191.5C 90.5031,191.667 108.503,191.5 126.5,191C 129.882,190.824 133.215,190.324 136.5,189.5C 132.499,188.701 128.499,188.035 124.5,187.5C 124.082,186.778 123.416,186.278 122.5,186C 125.333,185.833 128.167,185.667 131,185.5C 139.455,186.828 147.955,187.495 156.5,187.5 Z"/></g>
<g><path style="opacity:0.024" fill="#000b0e" d="M 63.5,182.5 C 65.3057,183.024 66.9724,183.691 68.5,184.5C 56.8945,186.075 45.2278,187.075 33.5,187.5C 33.5,188.5 33.5,189.5 33.5,190.5C 68.3738,194.102 103.374,195.436 138.5,194.5C 140.099,194.232 141.432,194.566 142.5,195.5C 131.864,197.035 121.031,198.035 110,198.5C 86.197,198.827 62.5303,197.16 39,193.5C 35.2444,194.544 32.4111,193.21 30.5,189.5C 31.0318,187.259 32.3651,185.759 34.5,185C 44.3052,184.407 53.9718,183.574 63.5,182.5 Z"/></g>
</svg>
